<?xml version="1.0" encoding="UTF-8" standalone="no"?>
<svg
   width="126"
   height="32"
   viewBox="0 0 33.337584 8.4667077"
   version="1.1"
   id="svg4"
   sodipodi:docname="thinkbig-logo.svg"
   inkscape:version="1.2.1 (9c6d41e410, 2022-07-14)"
   xmlns:inkscape="http://www.inkscape.org/namespaces/inkscape"
   xmlns:sodipodi="http://sodipodi.sourceforge.net/DTD/sodipodi-0.dtd"
   xmlns="http://www.w3.org/2000/svg"
   xmlns:svg="http://www.w3.org/2000/svg">
  <defs
     id="defs8" />
  <sodipodi:namedview
     id="namedview6"
     pagecolor="#505050"
     bordercolor="#ffffff"
     borderopacity="1"
     inkscape:showpageshadow="0"
     inkscape:pageopacity="0"
     inkscape:pagecheckerboard="1"
     inkscape:deskcolor="#505050"
     showgrid="false"
     inkscape:zoom="2.18"
     inkscape:cx="208.7156"
     inkscape:cy="65.137615"
     inkscape:window-width="1920"
     inkscape:window-height="1027"
     inkscape:window-x="-8"
     inkscape:window-y="22"
     inkscape:window-maximized="1"
     inkscape:current-layer="svg4" />
  <path
     style="font-weight:900;font-size:33.3901px;line-height:1.25;font-family:Exo;-inkscape-font-specification:'Exo Heavy';fill:#8e8dbf;fill-opacity:1;stroke:none;stroke-width:0.0663878;stroke-linecap:round;stroke-linejoin:round;stroke-dasharray:none;stroke-opacity:1;paint-order:stroke fill markers"
     d="M 9.5886223,0 A 0.83311394,0.66291158 0 0 0 8.7557604,0.66315774 0.83311394,0.66291158 0 0 0 9.5886223,1.3260693 0.83311394,0.66291158 0 0 0 10.421736,0.66315774 0.83311394,0.66291158 0 0 0 9.5886223,0 Z M 27.3466,0 A 0.83311394,0.66291158 0 0 0 26.513486,0.66315774 0.83311394,0.66291158 0 0 0 27.3466,1.3260693 0.83311394,0.66291158 0 0 0 28.179462,0.66315774 0.83311394,0.66291158 0 0 0 27.3466,0 Z M 16.368698,0.01649279 a 0.17967642,0.17797441 0 0 0 -0.179424,0.1779744 V 6.1788873 a 0.20412047,0.20259051 0 0 0 0.20412,0.2025905 h 1.248663 A 0.17967642,0.17797441 0 0 0 17.821481,6.2035034 V 4.7462303 h 0.311473 a 0.22780853,0.2259758 0 0 1 0.199585,0.1171726 l 0.773641,1.3922867 a 0.24519657,0.24296091 0 0 0 0.214957,0.1255421 H 20.62902 A 0.10584025,0.10486459 0 0 0 20.7215,6.2259041 L 19.487705,4.0207938 20.568788,2.0465826 A 0.11012426,0.10929549 0 0 0 20.472018,1.885101 H 19.148007 A 0.2167205,0.21514472 0 0 0 18.95573,2.0007966 l -0.598249,1.138987 A 0.29055668,0.28800837 0 0 1 18.099684,3.294865 H 17.821481 V 0.18338995 A 0.16833639,0.16689716 0 0 0 17.653397,0.01649279 Z M 3.9155851,0.02486226 A 0.19656046,0.19446719 0 0 0 3.7190247,0.21932945 V 6.1968571 a 0.18622843,0.18462075 0 0 0 0.1864804,0.1846207 h 1.299063 A 0.14691634,0.14572731 0 0 0 5.3514845,6.2357505 V 3.5201023 C 5.3965925,3.4757934 5.4525367,3.433946 5.5198208,3.3950526 a 0.94248219,0.92064215 0 0 1 0.2187366,-0.091818 0.66502955,0.64961889 0 0 1 0.446041,-0.00837 c 0.067284,0.022154 0.1204563,0.064002 0.1597684,0.1250498 0.044856,0.061294 0.067284,0.1476966 0.067284,0.2587152 v 2.508873 a 0.19555246,0.19372871 0 0 0 0.1955525,0.1939748 h 1.290243 A 0.14691634,0.14572731 0 0 0 8.0441107,6.2357505 V 3.4617622 c 0,-0.3392099 -0.042084,-0.6311568 -0.1260003,-0.8758409 C 7.8336902,2.3355756 7.6905539,2.1438162 7.4887014,2.0103969 7.286849,1.8767315 7.0063723,1.8100219 6.6472715,1.8100219 c -0.2469606,0 -0.4936692,0.055632 -0.7403778,0.1668971 C 5.6657292,2.0825221 5.4805088,2.1964946 5.3514845,2.3188366 V 0.17846673 A 0.15498036,0.15385063 0 0 0 5.1965041,0.02486226 Z M 21.400646,0.18338995 A 0.18799244,0.18634388 0 0 0 21.212653,0.36997999 V 6.1958724 a 0.18723644,0.1856054 0 0 0 0.186985,0.1856054 h 2.530842 c 0.431929,0 0.793802,-0.055632 1.085366,-0.1668971 0.291565,-0.1169265 0.510553,-0.3003164 0.65621,-0.550416 0.14616,-0.2503458 0.218988,-0.5784784 0.218988,-0.984644 0,-0.2166217 -0.02822,-0.4113351 -0.08417,-0.5838939 -0.0504,-0.1723127 -0.12348,-0.3224709 -0.218736,-0.4504747 A 1.1876788,1.1601568 0 0 0 25.251465,3.3364662 1.5659316,1.5296445 0 0 0 24.839192,3.1614458 c 0.190512,-0.044555 0.347761,-0.1250498 0.471241,-0.2419763 a 1.1415627,1.1151093 0 0 0 0.286021,-0.4504746 c 0.06728,-0.18339 0.1008,-0.3948423 0.1008,-0.6338646 0,-0.5117687 -0.148681,-0.91498047 -0.446041,-1.20963519 C 24.95965,0.33084039 24.477573,0.18338995 23.804227,0.18338995 Z M 1.1100626,0.62524895 A 0.16707639,0.16566636 0 0 0 0.9452542,0.76482224 L 0.76582978,1.8848548 H 0.0841682 A 0.0841682,0.08369474 0 0 0 0,1.9685495 v 1.0597232 a 0.14263233,0.14129642 0 0 0 0.14263233,0.1412964 h 0.55540929 l -0.0504001,1.518321 c -0.01134,0.4283202 0.0309961,0.7672839 0.12625229,1.0176296 0.10080024,0.2446841 0.26636459,0.4197045 0.49644119,0.5255538 0.2356205,0.099941 0.5468412,0.1501582 0.9339141,0.1501582 h 0.83891 A 0.10357224,0.1028953 0 0 0 3.1467313,6.2783364 V 5.3121544 A 0.14742034,0.14621964 0 0 0 3.014179,5.1669195 L 2.566122,5.121872 A 0.46695709,0.45613634 0 0 1 2.4315537,5.0883941 0.36892886,0.36037971 0 0 1 2.3307534,5.0049455 0.49089714,0.47952163 0 0 1 2.2803533,4.8715263 1.0231224,0.99941367 0 0 1 2.2632173,4.6795207 V 3.1698152 H 3.0794472 A 0.10080023,0.09994137 0 0 0 3.1802474,3.0696277 V 2.0263974 A 0.14263233,0.14129642 0 0 0 3.0378671,1.885101 H 2.2634693 V 0.76408375 A 0.13986033,0.13858864 0 0 0 2.1236089,0.62549511 Z M 22.845113,1.6345091 h 0.94223 c 0.08971,0 0.171109,0.036186 0.243937,0.1083108 0.07862,0.066956 0.117936,0.1949595 0.117936,0.3840112 0,0.1388348 -0.031,0.2557612 -0.09274,0.3502871 -0.05594,0.094526 -0.145908,0.1417887 -0.269137,0.1417887 h -0.942482 z m -8.793308,0.1752666 c -0.241165,0 -0.479557,0.052925 -0.715178,0.1585277 -0.235621,0.1058492 -0.423361,0.2222834 -0.563725,0.3502871 V 2.0202434 A 0.13608032,0.13514239 0 0 0 12.636821,1.885101 H 11.28761 a 0.14691634,0.14572731 0 0 0 -0.146916,0.1457273 v 4.2039376 a 0.14792434,0.14671196 0 0 0 0.147672,0.1467119 h 1.337619 A 0.14691634,0.14572731 0 0 0 12.772902,6.2357505 V 3.5201023 c 0.0504,-0.049971 0.106596,-0.094526 0.168336,-0.1334192 0.06728,-0.038893 0.140112,-0.069664 0.218737,-0.091818 0.07862,-0.022155 0.154476,-0.033232 0.227304,-0.033232 0.08971,0 0.165313,0.013785 0.227053,0.041847 0.06728,0.022154 0.120708,0.063756 0.16002,0.1248036 0.03931,0.061294 0.05872,0.1501582 0.05872,0.2670847 v 2.5393969 a 0.14792434,0.14671196 0 0 0 0.148177,0.1467119 h 1.337367 A 0.14691634,0.14572731 0 0 0 15.465532,6.2357505 V 3.478255 c 0,-0.3113937 -0.03654,-0.5922634 -0.109368,-0.8426091 C 15.28308,2.3796384 15.145739,2.1797557 14.943887,2.035013 14.741782,1.8848548 14.444674,1.8097757 14.051805,1.8097757 Z m 16.811967,0.075079 c -0.471241,0 -0.85277,0.05834 -1.144335,0.1752666 -0.286021,0.1110186 -0.496441,0.278162 -0.631009,0.5004454 -0.134821,0.2168678 -0.202105,0.4866603 -0.202105,0.8091312 0,0.1723127 0.02268,0.3365021 0.06728,0.492322 a 1.4641234,1.4301954 0 0 0 0.210421,0.4337357 1.4802514,1.4459497 0 0 0 0.387073,0.3502871 c -0.229825,0.055632 -0.409501,0.1668971 -0.538525,0.3335481 -0.129025,0.1668972 -0.193537,0.3643183 -0.193537,0.5925096 0,0.3003164 0.13734,0.5587854 0.412273,0.7756533 0.01562,0.011816 0.03175,0.022893 0.04838,0.03397 -0.1764,0.085664 -0.324325,0.1993904 -0.443521,0.3414253 -0.13482,0.1668972 -0.202104,0.3643183 -0.202104,0.5922634 v 0.091818 c 0,0.2225296 0.06451,0.4115812 0.193536,0.5674012 0.134568,0.1612354 0.313993,0.2835774 0.538273,0.3667798 0.224281,0.083695 0.474265,0.125296 0.748946,0.125296 h 1.422039 c 0.611606,0 1.057395,-0.1336654 1.338123,-0.400504 0.285769,-0.2668385 0.428905,-0.6341107 0.428905,-1.1010781 v -0.075079 c 0,-0.3559488 -0.07006,-0.6368185 -0.21042,-0.8426091 C 32.953353,5.8362312 32.757044,5.686073 32.50454,5.5969627 32.252035,5.5080986 31.954674,5.4635435 31.612458,5.4635435 h -1.093683 c -0.08971,0 -0.168336,-0.011077 -0.235621,-0.033478 -0.06728,-0.022155 -0.1008,-0.069417 -0.1008,-0.1417888 0,-0.072125 0.03352,-0.122342 0.1008,-0.1501582 a 0.5140812,0.50216845 0 0 1 0.235621,-0.049971 h 0.858314 c 0.392617,0 0.709382,-0.055632 0.950798,-0.1668971 0.241165,-0.1166803 0.417817,-0.278162 0.529957,-0.4837064 0.117937,-0.2057906 0.176905,-0.4477669 0.176905,-0.7256826 A 2.0412047,1.9939041 0 0 0 33.009549,3.378067 1.0836025,1.0584923 0 0 0 32.950579,3.119598 0.68468559,0.66881945 0 0 0 32.857839,2.9192229 H 33.17536 A 0.16203638,0.16074313 0 0 0 33.337649,2.7584802 V 2.0544597 A 0.1713604,0.16985109 0 0 0 33.166301,1.8848548 Z m -4.21471,0.057355 c -0.06955,-0.00172 -0.11844,0.045294 -0.11844,0.1260344 v 4.1428897 a 0.1713604,0.17009725 0 0 0 0.17136,0.1698511 h 1.279659 A 0.18144042,0.17969753 0 0 0 28.16283,6.201288 V 2.0771065 c 0,-0.1041261 -0.07812,-0.1545891 -0.178165,-0.1230805 A 2.0953849,2.0468287 0 0 1 27.3466,2.0507673 c -0.221761,0 -0.441505,-0.03397 -0.646382,-0.099449 a 0.17816441,0.17403583 0 0 0 -0.05116,-0.00886 z m -17.7577253,0 c -0.069552,-0.00148 -0.1186923,0.045294 -0.1186923,0.126035 V 6.2111344 A 0.1713604,0.17009725 0 0 0 8.9440048,6.3809855 H 10.223664 A 0.18144042,0.17969753 0 0 0 10.405104,6.201288 V 2.0771065 c 0,-0.1041261 -0.07812,-0.1545891 -0.178164,-0.1230805 A 2.0963929,2.0478134 0 0 1 9.5886223,2.050767 c -0.2217605,0 -0.441001,-0.03397 -0.6461295,-0.099449 A 0.17791241,0.17378967 0 0 0 8.8913368,1.942458 Z M 30.729203,3.0861205 h 0.462674 c 0.09526,0 0.17136,0.013785 0.227304,0.041847 0.05594,0.022155 0.09526,0.064002 0.117684,0.1250498 0.02268,0.055632 0.03377,0.1304653 0.03377,0.2252373 0,0.094526 -0.01134,0.1723127 -0.03377,0.2336068 A 0.23587255,0.2304067 0 0 1 31.419181,3.845281 c -0.0562,0.027816 -0.132048,0.041847 -0.227304,0.041847 h -0.462674 c -0.140364,0 -0.238392,-0.033724 -0.294588,-0.1004337 -0.0562,-0.066463 -0.08417,-0.1693588 -0.08417,-0.3084397 0,-0.1447427 0.02797,-0.2446841 0.08417,-0.3003165 0.0562,-0.061294 0.154224,-0.091818 0.294588,-0.091818 z M 22.844861,3.845281 h 1.034967 c 0.1008,0 0.18522,0.022155 0.252504,0.06671 0.06728,0.044309 0.117936,0.1083108 0.151453,0.1920055 0.03931,0.077787 0.05897,0.1723127 0.05897,0.2835775 0,0.1110186 -0.01966,0.2084984 -0.05897,0.2917008 a 0.41655697,0.40690414 0 0 1 -0.151201,0.1836361 c -0.06754,0.044555 -0.151704,0.06671 -0.252756,0.06671 h -1.034967 z m 7.749774,2.8195282 h 0.740378 c 0.08417,0 0.156996,0.011077 0.218736,0.033478 0.06174,0.022154 0.109369,0.052678 0.142885,0.091572 a 0.25200059,0.246161 0 0 1 0.05922,0.1668972 v 0.1001875 c 0,0.094526 -0.03931,0.166651 -0.117936,0.2166217 -0.07862,0.050217 -0.179425,0.075325 -0.302905,0.075325 h -0.740378 c -0.14616,0 -0.252504,-0.033478 -0.320041,-0.1001875 a 0.31575673,0.30843974 0 0 1 -0.09248,-0.2252374 v -0.041847 c 0,-0.061048 0.01411,-0.1166803 0.04208,-0.166651 0.02822,-0.044555 0.07308,-0.080741 0.134821,-0.1083109 0.06174,-0.028062 0.140112,-0.041847 0.23562,-0.041848 z"
     id="path2" />
</svg>
